# xmcd
# 
# Track frame offsets:
#     183
#     17323
#     29490
#     47500
#     67218
#     82073
#     96825
#     110635
#     126490
#     142858
#     156010
#     168790
# 
# Disc length: 2437
# 
# Revision: 3
# Processed by: cddbd v1.5.2PL0 Copyright (c) Steve Scherf et al.
# Submitted via: BonkEnc v1.0.8
# 
DISCID=9b09830c
DTITLE=Manhattan Transfer,The - Pastiche
DYEAR=1978
DGENRE=Jazz Vocal
TTITLE0=Four Brothers
TTITLE1=A Gal In Calico
TTITLE2=Love For Sale
TTITLE3=Je Voulais (Te Dire Que Je T'Attends)
TTITLE4=On A Little Street In Singapore
TTITLE5=In A Mellow Tone
TTITLE6=Walk In Love
TTITLE7=Who, What, When, Where, Why
TTITLE8=It's Not The Spotlight
TTITLE9=Pieces Of Dreams
TTITLE10=Where Did Our Love Go
TTITLE11=Single Girl
EXTD=
EXTT0=
EXTT1=
EXTT2=
EXTT3=
EXTT4=
EXTT5=
EXTT6=
EXTT7=
EXTT8=
EXTT9=
EXTT10=
EXTT11=
PLAYORDER=
